<?xml version="1.0" encoding="UTF-8"?>
<svg id="Layer_1" data-name="Layer 1" xmlns="http://www.w3.org/2000/svg" version="1.1" xmlns:xlink="http://www.w3.org/1999/xlink" viewBox="0 0 250 250">
  <defs>
    <style>
      .cls-1 {
        fill: url(#linear-gradient);
      }

      .cls-1, .cls-2, .cls-3, .cls-4, .cls-5, .cls-6 {
        stroke-width: 0px;
      }

      .cls-2 {
        fill: url(#linear-gradient-6);
      }

      .cls-7 {
        fill: #231f20;
        font-family: AdobeMingStd-Light-B5pc-H, 'Adobe Ming Std';
        font-size: 14px;
        font-weight: 300;
      }

      .cls-8 {
        fill: none;
      }

      .cls-8, .cls-9 {
        stroke: #000;
        stroke-miterlimit: 10;
      }

      .cls-3 {
        fill: url(#linear-gradient-5);
      }

      .cls-4 {
        fill: url(#linear-gradient-2);
      }

      .cls-9 {
        fill: #787878;
        opacity: .88;
      }

      .cls-5 {
        fill: url(#linear-gradient-3);
      }

      .cls-6 {
        fill: url(#linear-gradient-4);
      }
    </style>
    <linearGradient id="linear-gradient" x1="126.92" y1="-167.2" x2="149.92" y2="-167.2" gradientTransform="translate(57.89 241.09) scale(1 .49)" gradientUnits="userSpaceOnUse">
      <stop offset="0" stop-color="#fff"/>
      <stop offset="1" stop-color="#231f20"/>
    </linearGradient>
    <linearGradient id="linear-gradient-2" x1="-65.99" y1="13.22" x2="-42.99" y2="13.22" gradientTransform="translate(167.37 103.29) scale(1 1.21)" xlink:href="#linear-gradient"/>
    <linearGradient id="linear-gradient-3" x1="29.2" y1="156.6" x2="52.2" y2="156.6" gradientTransform="translate(48.35 15.37) scale(1 .65)" xlink:href="#linear-gradient"/>
    <linearGradient id="linear-gradient-4" x1="159.2" y1="158.13" x2="182.2" y2="158.13" gradientTransform="translate(48.35 15.37) scale(1 .65)" xlink:href="#linear-gradient"/>
    <linearGradient id="linear-gradient-5" x1="80.2" y1="156.6" x2="103.2" y2="156.6" gradientTransform="translate(48.35 15.37) scale(1 .65)" xlink:href="#linear-gradient"/>
    <linearGradient id="linear-gradient-6" x1="115.2" y1="158.13" x2="138.2" y2="158.13" gradientTransform="translate(48.35 15.37) scale(1 .65)" xlink:href="#linear-gradient"/>
  </defs>
  <rect class="cls-9" x="-.5" y=".5" width="250" height="250" rx="125" ry="125"/>
  <rect class="cls-1" x="184.8" y="138.36" width="23" height="42.8" rx="5.41" ry="5.41" transform="translate(356.07 -36.54) rotate(90)"/>
  <rect class="cls-4" x="101.37" y="65.91" width="23" height="106.89" rx="5.41" ry="5.41" transform="translate(-42.61 66.35) rotate(-27.77)"/>
  <text class="cls-7" transform="translate(49 207.81) scale(.66 1)"><tspan x="0" y="0">Join Us Now On SnowboardersUnite</tspan></text>
  <rect class="cls-5" x="77.55" y="64.72" width="23" height="106.28"/>
  <rect class="cls-6" x="207.55" y="65.72" width="23" height="106.28"/>
  <rect class="cls-3" x="128.55" y="64.72" width="23" height="106.28"/>
  <rect class="cls-2" x="163.55" y="65.72" width="23" height="106.28"/>
  <polyline class="cls-8" points="65 69.72 21.5 86.97 21.5 113.07 64.02 130.88 65 158.51 21.5 172"/>
  <polyline class="cls-8" points="90.41 13.81 107.07 57.54 133.17 57.89 151.55 15.62 179.19 15.01 192.09 58.69"/>
</svg>